# Blender v3.0.0 OBJ File: ''
# www.blender.org
o Cylinder
v 0.000000 0.000000 -0.070000
v 0.000000 -0.000000 0.070000
v 0.000000 0.040000 -0.045207
v 0.000000 0.040000 0.070000
v 0.028284 0.028284 -0.045207
v 0.028284 0.028284 0.070000
v 0.040000 0.000000 -0.045207
v 0.040000 -0.000000 0.070000
v 0.028284 -0.028284 -0.045207
v 0.028284 -0.028284 0.070000
v -0.000000 -0.040000 -0.045207
v -0.000000 -0.040000 0.070000
v -0.028284 -0.028284 -0.045207
v -0.028284 -0.028284 0.070000
v -0.040000 0.000000 -0.045207
v -0.040000 -0.000000 0.070000
v -0.028284 0.028284 -0.045207
v -0.028284 0.028284 0.070000
v 0.000000 0.032964 -0.056063
v 0.023309 0.023309 -0.056063
v 0.032964 0.000000 -0.056063
v 0.023309 -0.023309 -0.056063
v -0.000000 -0.032964 -0.056063
v -0.023309 -0.023309 -0.056063
v -0.032964 0.000000 -0.056063
v -0.023309 0.023309 -0.056063
v 0.000000 0.015519 -0.068154
v 0.010974 0.010974 -0.068154
v 0.015519 0.000000 -0.068154
v 0.010974 -0.010974 -0.068154
v -0.000000 -0.015519 -0.068154
v -0.010974 -0.010974 -0.068154
v -0.015519 0.000000 -0.068154
v -0.010974 0.010974 -0.068154
v 0.000000 0.007087 -0.070000
v 0.005011 0.005011 -0.070000
v 0.007087 0.000000 -0.070000
v 0.005011 -0.005011 -0.070000
v -0.000000 -0.007087 -0.070000
v -0.005011 -0.005011 -0.070000
v -0.007087 0.000000 -0.070000
v -0.005011 0.005011 -0.070000
vt 0.965428 0.937414
vt 0.938699 0.948485
vt 0.938699 0.926342
vt 0.150957 0.687463
vt 0.213445 0.838322
vt 0.088469 0.838322
vt 0.772113 0.999902
vt 0.301816 0.999902
vt 0.301816 0.874926
vt 0.772113 0.874926
vt 0.965428 0.812439
vt 0.938699 0.823510
vt 0.938699 0.801367
vt 0.301816 0.749951
vt 0.772113 0.749951
vt 0.965428 0.687463
vt 0.938699 0.698535
vt 0.938699 0.676392
vt 0.301816 0.624975
vt 0.772113 0.624976
vt 0.965428 0.562488
vt 0.938699 0.573559
vt 0.938699 0.551416
vt 0.213445 0.536604
vt 0.301816 0.500000
vt 0.772113 0.500000
vt 0.965428 0.437512
vt 0.938699 0.448584
vt 0.938699 0.426441
vt 0.088469 0.536605
vt 0.301816 0.375025
vt 0.772113 0.375025
vt 0.965428 0.312537
vt 0.938699 0.323608
vt 0.938699 0.301465
vt 0.000098 0.624976
vt 0.301815 0.250049
vt 0.772113 0.250049
vt 0.965428 0.187561
vt 0.938699 0.198633
vt 0.938699 0.176490
vt 0.000098 0.749951
vt 0.301815 0.125074
vt 0.772113 0.125074
vt 0.965428 0.062586
vt 0.938699 0.073657
vt 0.938699 0.051514
vt 0.301815 0.000098
vt 0.772113 0.000098
vt 0.823766 0.885917
vt 0.823766 0.988911
vt 0.823766 0.760942
vt 0.823766 0.863935
vt 0.823766 0.635966
vt 0.823766 0.738960
vt 0.823766 0.510991
vt 0.823766 0.613985
vt 0.823766 0.386015
vt 0.823766 0.489009
vt 0.823766 0.261040
vt 0.823766 0.364034
vt 0.823766 0.136065
vt 0.823766 0.239058
vt 0.823766 0.011089
vt 0.823766 0.114083
vt 0.906018 0.913170
vt 0.906018 0.961658
vt 0.906018 0.788195
vt 0.906018 0.836682
vt 0.906018 0.663219
vt 0.906018 0.711707
vt 0.906018 0.538244
vt 0.906018 0.586731
vt 0.906018 0.413269
vt 0.906018 0.461756
vt 0.906018 0.288293
vt 0.906018 0.336781
vt 0.906018 0.163318
vt 0.906018 0.211805
vt 0.906018 0.038342
vt 0.906018 0.086830
vn 0.0000 0.0000 -1.0000
vn 0.0000 0.1339 -0.9910
vn 0.0947 0.0947 -0.9910
vn 0.0000 0.0000 1.0000
vn 0.5490 0.5490 0.6302
vn 0.0000 0.7764 0.6302
vn 0.0000 0.9639 -0.2664
vn 0.6815 0.6815 -0.2664
vn 0.1339 0.0000 -0.9910
vn 0.7764 0.0000 0.6302
vn 0.9639 0.0000 -0.2664
vn 0.0947 -0.0947 -0.9910
vn 0.5490 -0.5490 0.6302
vn 0.6815 -0.6815 -0.2664
vn 0.0000 -0.1339 -0.9910
vn 0.0000 -0.7764 0.6302
vn 0.0000 -0.9639 -0.2664
vn -0.0947 -0.0947 -0.9910
vn -0.5490 -0.5490 0.6302
vn -0.6815 -0.6815 -0.2664
vn -0.1339 0.0000 -0.9910
vn -0.7764 0.0000 0.6302
vn -0.9639 0.0000 -0.2664
vn -0.0947 0.0947 -0.9910
vn -0.5490 0.5490 0.6302
vn -0.6815 0.6815 -0.2664
vn 0.5230 0.5230 -0.6730
vn 0.0000 0.7396 -0.6730
vn 0.7396 0.0000 -0.6730
vn 0.5230 -0.5230 -0.6730
vn 0.0000 -0.7396 -0.6730
vn -0.5230 -0.5230 -0.6730
vn -0.7396 0.0000 -0.6730
vn -0.5230 0.5230 -0.6730
vn 0.3099 0.3099 -0.8988
vn 0.0000 0.4383 -0.8988
vn 0.4383 0.0000 -0.8988
vn 0.3099 -0.3099 -0.8988
vn 0.0000 -0.4383 -0.8988
vn -0.3099 -0.3099 -0.8988
vn -0.4383 0.0000 -0.8988
vn -0.3099 0.3099 -0.8988
s 1
f 1/1/1 35/2/2 36/3/3
f 2/4/4 6/5/5 4/6/6
f 3/7/7 4/8/6 6/9/5 5/10/8
f 1/11/1 36/12/3 37/13/9
f 2/4/4 8/14/10 6/5/5
f 5/10/8 6/9/5 8/14/10 7/15/11
f 1/16/1 37/17/9 38/18/12
f 2/4/4 10/19/13 8/14/10
f 7/15/11 8/14/10 10/19/13 9/20/14
f 1/21/1 38/22/12 39/23/15
f 2/4/4 12/24/16 10/19/13
f 9/20/14 10/19/13 12/25/16 11/26/17
f 1/27/1 39/28/15 40/29/18
f 2/4/4 14/30/19 12/24/16
f 11/26/17 12/25/16 14/31/19 13/32/20
f 1/33/1 40/34/18 41/35/21
f 2/4/4 16/36/22 14/30/19
f 13/32/20 14/31/19 16/37/22 15/38/23
f 1/39/1 41/40/21 42/41/24
f 2/4/4 18/42/25 16/36/22
f 15/38/23 16/37/22 18/43/25 17/44/26
f 1/45/1 42/46/24 35/47/2
f 2/4/4 4/6/6 18/42/25
f 17/44/26 18/43/25 4/48/6 3/49/7
f 20/50/27 19/51/28 3/7/7 5/10/8
f 21/52/29 20/53/27 5/10/8 7/15/11
f 22/54/30 21/55/29 7/15/11 9/20/14
f 23/56/31 22/57/30 9/20/14 11/26/17
f 24/58/32 23/59/31 11/26/17 13/32/20
f 25/60/33 24/61/32 13/32/20 15/38/23
f 26/62/34 25/63/33 15/38/23 17/44/26
f 19/64/28 26/65/34 17/44/26 3/49/7
f 28/66/35 27/67/36 19/51/28 20/50/27
f 29/68/37 28/69/35 20/53/27 21/52/29
f 30/70/38 29/71/37 21/55/29 22/54/30
f 31/72/39 30/73/38 22/57/30 23/56/31
f 32/74/40 31/75/39 23/59/31 24/58/32
f 33/76/41 32/77/40 24/61/32 25/60/33
f 34/78/42 33/79/41 25/63/33 26/62/34
f 27/80/36 34/81/42 26/65/34 19/64/28
f 36/3/3 35/2/2 27/67/36 28/66/35
f 37/13/9 36/12/3 28/69/35 29/68/37
f 38/18/12 37/17/9 29/71/37 30/70/38
f 39/23/15 38/22/12 30/73/38 31/72/39
f 40/29/18 39/28/15 31/75/39 32/74/40
f 41/35/21 40/34/18 32/77/40 33/76/41
f 42/41/24 41/40/21 33/79/41 34/78/42
f 35/47/2 42/46/24 34/81/42 27/80/36
